<svg width="131" height="37" viewBox="0 0 131 37" fill="none" xmlns="http://www.w3.org/2000/svg">
<path d="M49.1043 33.6831C50.9934 33.6398 52.5833 33.2044 53.9149 32.3334C55.2023 31.5063 56.1912 30.3309 56.835 28.8958C57.5221 27.4594 57.866 25.8924 57.866 24.151C57.866 22.7161 57.6935 21.5412 57.3501 20.6264C57.0067 19.6687 56.5339 18.8858 55.9766 18.233C55.2023 17.3186 54.2146 16.5791 53.0557 16.0568C51.8961 15.5344 50.5656 15.0559 49.062 14.6208C48.3746 14.4024 47.5582 14.0985 46.6138 13.6195C45.6689 13.1841 44.8535 12.6609 44.1655 12.0088C43.6503 11.4429 43.2644 10.7911 43.093 10.1365C42.9205 9.48413 42.8345 8.83174 42.8345 8.22204C42.8345 7.43891 43.0066 6.69958 43.3493 5.91644C43.6503 5.13219 44.2087 4.47935 44.9823 3.95704C45.7549 3.43472 46.7429 3.13054 48.031 3.13054C49.0183 3.13054 49.9203 3.26106 50.6937 3.60927C51.4665 3.91323 52.1537 4.34883 52.7123 5.00144C53.5715 5.95958 54.2146 6.82965 54.5582 7.65704C54.945 8.48353 55.246 9.17995 55.3744 9.83346C55.4178 9.96376 55.5038 10.0067 55.6324 9.96376L56.1469 9.83346C56.234 9.83346 56.2766 9.78921 56.3193 9.7016C56.3632 9.65869 56.3632 9.57175 56.3632 9.48414C56.3632 9.1366 56.2766 8.48354 56.1912 7.61323C56.1041 6.69958 56.0188 5.78502 55.8906 4.82778C55.8042 3.87009 55.7614 3.13054 55.7614 2.56353C55.7614 2.34673 55.7175 2.17218 55.6754 2.04233C55.6324 1.91203 55.5466 1.82397 55.4178 1.82397C55.3316 1.82397 55.2023 1.86778 55.1602 1.91203C55.074 1.95539 54.945 1.99852 54.8592 2.08524L54.3017 2.60778C54.2146 2.73942 54.086 2.78188 53.957 2.78188C53.8282 2.82591 53.6568 2.73942 53.485 2.65159C53.0987 2.43412 52.4973 2.21599 51.5957 1.99852C50.6937 1.73703 49.6636 1.60651 48.418 1.56293C47.2585 1.56293 46.1419 1.73703 45.1105 2.04233C44.0799 2.39054 43.1788 2.91241 42.4054 3.65174C41.7182 4.30524 41.117 5.13219 40.5586 6.0901C40.0441 7.09114 39.7852 8.13532 39.7429 9.22309C39.7429 10.6602 39.9149 11.8785 40.3008 12.922C40.6442 13.9679 41.16 14.8814 41.8898 15.5771C42.8778 16.5355 43.9948 17.3186 45.1969 17.8847C46.4429 18.4504 47.4294 18.8858 48.1598 19.1028C49.9203 19.6687 51.4665 20.4959 52.7553 21.5412C54.0434 22.6283 54.7311 24.2821 54.7741 26.4574C54.7311 27.7645 54.4294 28.808 53.8282 29.6354C53.2281 30.4616 52.4973 31.0289 51.5957 31.4204C50.6937 31.8116 49.8345 31.9859 48.9334 31.9859C47.7306 31.9859 46.5704 31.6806 45.5401 31.1583C44.4665 30.5933 43.565 29.8101 42.9205 28.7657C42.2338 27.6771 41.804 26.7185 41.6328 25.9358C41.4604 25.152 41.3744 24.4127 41.3744 23.7162C41.3744 23.5855 41.3312 23.4997 41.2884 23.4559C41.2884 23.4121 41.203 23.3678 41.117 23.3678L40.4733 23.3247C40.3868 23.3247 40.3438 23.3247 40.2574 23.3678C40.2148 23.3678 40.2148 23.4559 40.1722 23.5855C40.1288 24.0649 40.0441 24.848 39.9574 25.9358C39.8712 27.068 39.7852 28.1565 39.6992 29.1998C39.5706 30.2882 39.4846 31.0289 39.4414 31.4647C39.3984 31.7251 39.4414 31.8976 39.5278 31.9859C39.5706 32.116 39.6992 32.16 39.8282 32.16C39.9574 32.16 40.1288 32.16 40.2148 32.0719C40.3438 32.0292 40.4733 31.8556 40.6007 31.6379C40.73 31.4202 40.8597 31.2454 40.9452 31.1145C41.0308 30.9853 41.16 30.8972 41.2884 30.8972C41.3744 30.8972 41.5036 30.9404 41.6752 31.0286C41.804 31.0713 42.0192 31.2454 42.2761 31.4202C43.1358 32.1157 44.0799 32.6385 45.1969 33.0736C46.3141 33.4661 47.6018 33.6831 49.1043 33.6831ZM75.4714 21.4531C75.8148 21.4531 76.1152 21.4102 76.3304 21.3226C76.5452 21.2365 76.6738 21.0618 76.6738 20.7565C76.6738 20.1474 76.5016 19.3212 76.1154 18.3633C75.7716 17.3615 75.1283 16.4474 74.1824 15.6218C73.2815 14.8378 71.9925 14.4024 70.3608 14.3593C69.2881 14.3593 68.2139 14.4896 67.1827 14.7944C66.1525 15.0988 65.1639 15.7515 64.2202 16.6665C63.1036 17.8412 62.3732 19.1028 62.0296 20.3653C61.6424 21.6279 61.4717 22.7161 61.514 23.5855C61.514 25.0666 61.6424 26.3269 61.9009 27.3291C62.1587 28.3726 62.674 29.4186 63.4031 30.4619C64.2202 31.6383 65.2503 32.421 66.4527 32.9004C67.6553 33.3351 68.9015 33.5531 70.1469 33.5531C71.4341 33.5086 72.5088 33.2478 73.4525 32.7259C74.3555 32.1604 75.1283 31.5507 75.7288 30.8116C76.2872 30.0712 76.717 29.4188 76.9748 28.8082C77.0602 28.5914 77.103 28.4162 77.103 28.3301C77.103 28.2434 77.0602 28.1567 76.9748 28.1567L76.4169 27.8518C76.3302 27.8518 76.2872 27.8518 76.2012 27.8959C76.115 27.9379 76.0731 27.9817 76.0301 28.0684C75.6435 28.8082 75.041 29.5051 74.1405 30.0712C73.2379 30.6816 72.1652 30.9857 70.8327 31.0291C69.0718 30.9857 67.612 30.2886 66.4955 28.896C65.3793 27.5039 64.7771 25.7183 64.7358 23.5426C64.7358 22.5409 64.7773 21.846 64.8633 21.4533H75.4714V21.4531ZM65.0353 20.1474C65.4647 18.5365 66.0663 17.4065 66.8825 16.7094C67.6985 16.013 68.6005 15.6645 69.5444 15.6645C70.447 15.7079 71.1768 15.97 71.6489 16.4474C72.122 16.9266 72.4649 17.4932 72.6367 18.1013C72.7657 18.7115 72.8517 19.1909 72.8517 19.5384C72.8517 19.7561 72.7657 19.8862 72.5926 19.974C72.3793 20.1045 72.0787 20.1474 71.6926 20.1474H65.0353ZM95.8691 17.7097C95.7838 17.3615 95.8261 17.1021 95.9553 16.883C96.0833 16.7094 96.2562 16.5791 96.4699 16.5791H97.3727C97.5862 16.5791 97.6726 16.4474 97.6726 16.2309V15.3156C97.6726 15.2294 97.6299 15.1422 97.586 15.0988C97.5445 15.0559 97.4151 15.0115 97.2854 15.0115C97.1151 15.0115 96.7718 15.0559 96.2562 15.0559C95.7403 15.0988 95.0108 15.1422 94.023 15.1422C92.9477 15.1422 92.0898 15.0988 91.4024 15.0559C90.7585 15.0559 90.3286 15.0115 90.1564 15.0115C90.028 15.0115 89.9429 15.0559 89.8562 15.0988C89.8139 15.1422 89.7707 15.2294 89.7707 15.3603V16.2738C89.7707 16.491 89.8563 16.5791 90.0726 16.5791H90.7157C91.0163 16.5791 91.2743 16.622 91.4463 16.6665C91.6174 16.7525 91.789 16.8406 91.8746 17.0135C92.0045 17.1883 92.09 17.3615 92.1322 17.5792C92.1752 17.7974 92.2188 18.0582 92.2621 18.4064L87.8816 29.0266H87.71L84.3164 17.4932C84.1883 17.1021 84.1883 16.7968 84.3164 16.622C84.4031 16.4045 84.5749 16.3182 84.8327 16.3182H85.2189C85.3479 16.3182 85.4758 16.2738 85.5192 16.2309C85.5622 16.1432 85.5622 16.0568 85.5622 15.97V15.0986C85.5622 14.9679 85.5192 14.8812 85.4756 14.8376C85.4328 14.7942 85.3476 14.7515 85.2186 14.7515C84.9187 14.7515 84.4461 14.7942 83.887 14.7942C83.3289 14.8376 82.5568 14.8812 81.6107 14.8812C80.4079 14.8812 79.5489 14.8376 78.9484 14.7942C78.3896 14.7942 77.96 14.7515 77.703 14.7515C77.617 14.7515 77.5317 14.7942 77.4889 14.8376C77.4459 14.9247 77.4459 15.0112 77.4459 15.0986V15.926C77.4459 16.0565 77.4459 16.143 77.4889 16.2306C77.5315 16.2735 77.617 16.318 77.7463 16.318H78.6912C79.2058 16.318 79.5928 16.4043 79.8502 16.5788C80.1505 16.7965 80.366 17.0567 80.4948 17.493L86.1206 32.8117C86.2057 33.0739 86.2929 33.2909 86.4216 33.4221C86.5502 33.5951 86.6783 33.6829 86.8508 33.6829C87.0217 33.6829 87.1942 33.6395 87.3664 33.5081C87.4945 33.4221 87.624 33.2473 87.7537 32.9865L93.035 20.4512H93.2496L97.4581 32.8555C97.545 33.117 97.6729 33.3349 97.8019 33.4659C97.9316 33.5951 98.0595 33.6829 98.2313 33.6829C98.4024 33.6829 98.5746 33.6395 98.7043 33.5951C98.8322 33.5079 98.9617 33.3347 99.047 33.1168C99.2199 32.6825 99.6052 31.7246 100.251 30.1143C100.851 28.5465 101.538 26.8054 102.311 24.8909C103.083 22.9331 103.815 21.2361 104.416 19.7114C105.018 18.2325 105.404 17.3182 105.575 17.0565C105.705 16.8401 105.919 16.666 106.177 16.535C106.434 16.4041 106.692 16.3178 106.951 16.3178H108.023C108.238 16.3178 108.324 16.1859 108.324 15.9696V15.0555C108.324 14.9677 108.281 14.8809 108.237 14.8374C108.194 14.794 108.11 14.7513 108.023 14.7513C107.765 14.7513 107.421 14.794 106.95 14.794C106.477 14.8374 105.791 14.8809 104.887 14.8809C103.985 14.8809 103.256 14.8374 102.656 14.794C102.096 14.794 101.711 14.7513 101.581 14.7513C101.496 14.7513 101.41 14.794 101.366 14.8374C101.324 14.8809 101.281 14.9677 101.281 15.0555V15.9696C101.281 16.0563 101.281 16.1428 101.324 16.2304C101.366 16.2733 101.453 16.3178 101.538 16.3178H102.139C102.569 16.3178 102.869 16.535 102.998 16.9262C103.127 17.3611 103.042 17.9285 102.784 18.711L99.3046 28.2857H99.1341L95.8691 17.7097ZM121.764 25.2825V18.6241C121.764 18.0153 121.72 17.4932 121.635 16.9711C121.505 16.4474 121.248 15.97 120.818 15.5344C120.518 15.2294 120.131 14.9681 119.616 14.7518C119.143 14.4896 118.37 14.3593 117.383 14.3593C116.438 14.3593 115.536 14.4896 114.72 14.7066C113.904 14.9681 113.046 15.3603 112.142 15.8827C111.241 16.4045 110.554 17.0569 109.997 17.7974C109.481 18.5365 109.18 19.2765 109.18 19.974C109.18 20.4514 109.267 20.8427 109.438 21.0618C109.61 21.2783 109.867 21.3662 110.211 21.3662C111.07 21.3662 111.671 21.148 112.015 20.7136C112.358 20.2791 112.486 19.6687 112.486 18.8858C112.444 18.4938 112.402 18.1453 112.358 17.7974C112.316 17.4491 112.444 17.1452 112.702 16.883C113.046 16.5791 113.475 16.3618 113.991 16.2309C114.548 16.0568 115.02 15.97 115.494 15.97C116.138 15.97 116.653 16.0568 117.083 16.2309C117.512 16.4045 117.857 16.622 118.07 16.9266C118.285 17.2312 118.456 17.6239 118.499 18.0582C118.586 18.5365 118.629 18.9718 118.671 19.3636V22.15C118.285 22.455 117.641 22.8462 116.696 23.3247C115.794 23.7605 114.805 24.239 113.819 24.6751C112.143 25.4142 111.027 26.2411 110.383 27.1118C109.781 28.0255 109.481 28.9401 109.524 29.94C109.567 31.2899 109.867 32.2474 110.427 32.769C110.984 33.2909 111.543 33.5528 112.101 33.5528C112.573 33.5528 113.002 33.5528 113.432 33.5084C113.819 33.5084 114.248 33.4223 114.636 33.2909C115.579 32.9433 116.439 32.5958 117.168 32.116C117.857 31.6806 118.456 31.2021 118.886 30.6366H118.973C119.186 31.5505 119.53 32.2474 120.046 32.769C120.604 33.2909 121.248 33.5528 122.02 33.5528C123.094 33.5084 123.867 33.2475 124.384 32.7257C124.899 32.2474 125.2 31.8116 125.372 31.4204C125.499 31.2021 125.543 31.0289 125.543 30.8975C125.543 30.8112 125.499 30.6813 125.414 30.6366L124.985 30.2882C124.899 30.2455 124.813 30.2015 124.769 30.2455C124.727 30.2882 124.641 30.3758 124.556 30.4616C124.426 30.6366 124.254 30.7665 123.997 30.8975C123.697 31.0289 123.396 31.1147 123.051 31.1147C122.665 31.1583 122.365 30.8975 122.108 30.4187C121.892 29.94 121.764 29.0701 121.764 27.8516V25.2825H121.764ZM118.629 28.8078C118.542 29.4181 118.112 30.0272 117.339 30.593C116.524 31.1581 115.793 31.4645 115.107 31.506C114.461 31.506 113.904 31.3328 113.518 30.8972C113.088 30.5057 112.873 29.9398 112.873 29.1128C112.915 27.9374 113.301 26.9809 114.031 26.2851C114.763 25.6307 115.536 25.0666 116.438 24.631C117.339 24.239 118.069 23.8463 118.629 23.4559V28.8078Z" fill="#1C252E"/>
<path d="M0 18.5488C0 8.84248 7.76391 0.974243 17.3417 0.974243C26.3558 0.974243 33.764 7.94559 34.6029 16.8576H28.0072V20.2393H34.6029C33.764 29.1531 26.3558 36.1231 17.3417 36.1231C7.76391 36.1231 0 28.2553 0 18.5488Z" fill="#60BB47"/>
<path d="M22.246 15.2816C22.613 15.2235 22.9268 15.1247 23.1414 14.9955C23.3566 14.8659 23.4651 14.6567 23.4144 14.3322C23.3127 13.6818 22.991 12.8289 22.4187 11.8721C21.8846 10.8621 21.0441 9.99654 19.8978 9.27621C18.8044 8.59387 17.3563 8.34914 15.6066 8.58247C14.4605 8.76753 13.3364 9.09003 12.2862 9.59179C11.2367 10.0944 10.2913 10.9605 9.43516 12.0985C8.43835 13.5439 7.87003 15.0159 7.71389 16.4239C7.51144 17.8362 7.50945 19.0279 7.70066 19.9498C7.94788 21.5301 8.2961 22.8548 8.73739 23.8796C9.18684 24.9512 9.91218 25.9775 10.8653 26.9683C11.9327 28.0811 13.1642 28.7417 14.5266 29.0473C15.8843 29.3052 17.2494 29.3248 18.5794 29.1119C19.9474 28.8437 21.0503 28.3817 21.9723 27.6618C22.8406 26.9039 23.5644 26.1199 24.0824 25.2284C24.555 24.3422 24.905 23.5722 25.0788 22.8769C25.1337 22.6298 25.1507 22.4366 25.1352 22.3437C25.1209 22.2498 25.0609 22.1655 24.9698 22.1792L24.3224 21.9508C24.2302 21.9646 24.1852 21.9724 24.0998 22.0335C24.0162 22.0949 23.9774 22.1481 23.9463 22.2489C23.6572 23.1056 23.1312 23.9524 22.2626 24.7103C21.4016 25.5149 20.306 26.024 18.8921 26.2985C17.005 26.5541 15.3296 26.06 13.905 24.7653C12.481 23.4694 11.5408 21.6671 11.1322 19.3517C10.9646 18.2829 10.8953 17.5315 10.922 17.0993L22.246 15.2816ZM10.8867 15.6754C11.0764 13.8827 11.5294 12.5724 12.2851 11.688C13.0409 10.8061 13.9455 10.2781 14.9536 10.117C15.9235 10.0088 16.7461 10.1622 17.3303 10.5928C17.9149 11.0226 18.3763 11.5684 18.6608 12.1897C18.9005 12.8175 19.0721 13.3144 19.1303 13.6865C19.1663 13.9185 19.0957 14.0727 18.927 14.1949C18.7197 14.3708 18.4063 14.469 17.9937 14.5353L10.8867 15.6754Z" fill="white"/>
<path d="M126.437 14.6356H125.537V14.3064H127.728V14.6356H126.823V17.3051H126.437V14.6356Z" fill="#28323C"/>
<path d="M130.552 15.9875C130.53 15.5747 130.504 15.0627 130.504 14.693H130.495C130.39 15.0397 130.271 15.423 130.122 15.832L129.6 17.287H129.31L128.827 15.8595C128.686 15.4368 128.572 15.0493 128.489 14.693H128.48C128.471 15.0674 128.449 15.5694 128.423 16.02L128.344 17.3051H127.979L128.186 14.3064H128.674L129.179 15.7567C129.302 16.1263 129.398 16.4602 129.478 16.7716H129.485C129.564 16.4685 129.67 16.1348 129.802 15.7567L130.328 14.3064H130.817L131 17.3051H130.623L130.552 15.9875Z" fill="#28323C"/>
</svg>
